HIERARCHY
ROOT Hips
{
	OFFSET	0.00	0.00	0.00
	CHANNELS 6 Xposition Yposition Zposition Zrotation Xrotation Yrotation
	JOINT LeftUpLeg
	{
		OFFSET	 0.126116	-0.065224	 0.014019
		CHANNELS 3 Zrotation Xrotation Yrotation
		JOINT LeftLeg
		{
			OFFSET	 0.000000	 0.569914	 0.000000
			CHANNELS 3 Zrotation Xrotation Yrotation
			JOINT LeftFoot
			{
				OFFSET	 0.000000	 0.544423	 0.000000
				CHANNELS 3 Zrotation Xrotation Yrotation
				JOINT LeftToeBase
				{
					OFFSET	 0.000000	 0.207117	 0.000000
					CHANNELS 3 Zrotation Xrotation Yrotation
					End Site
					{
						OFFSET	 0.000000	 0.207117	 0.000000
					}
				}
			}
		}
	}
	JOINT RightUpLeg
	{
		OFFSET	-0.124023	-0.065224	 0.008373
		CHANNELS 3 Zrotation Xrotation Yrotation
		JOINT RightLeg
		{
			OFFSET	 0.000000	 0.570047	 0.000000
			CHANNELS 3 Zrotation Xrotation Yrotation
			JOINT RightFoot
			{
				OFFSET	 0.000000	 0.544354	 0.000000
				CHANNELS 3 Zrotation Xrotation Yrotation
				JOINT RightToeBase
				{
					OFFSET	 0.000000	 0.207540	 0.000000
					CHANNELS 3 Zrotation Xrotation Yrotation
					End Site
					{
						OFFSET	 0.000000	 0.207540	 0.000000
					}
				}
			}
		}
	}
	JOINT Spine
	{
		OFFSET	 0.000184	 0.117403	 0.007763
		CHANNELS 3 Zrotation Xrotation Yrotation
		JOINT Spine1
		{
			OFFSET	 0.000000	 0.137269	 0.000000
			CHANNELS 3 Zrotation Xrotation Yrotation
			JOINT Spine2
			{
				OFFSET	 0.000000	 0.156879	 0.000000
				CHANNELS 3 Zrotation Xrotation Yrotation
				JOINT LeftShoulder
				{
					OFFSET	 0.080501	 0.160143	 0.002496
					CHANNELS 3 Zrotation Xrotation Yrotation
					JOINT LeftArm
					{
						OFFSET	 0.000000	 0.164363	 0.000000
						CHANNELS 3 Zrotation Xrotation Yrotation
						JOINT LeftForeArm
						{
							OFFSET	 0.000000	 0.364576	 0.000000
							CHANNELS 3 Zrotation Xrotation Yrotation
							JOINT LeftHand
							{
								OFFSET	 0.000000	 0.360812	 0.000000
								CHANNELS 3 Zrotation Xrotation Yrotation
								JOINT LeftHandIndex1
								{
									OFFSET	 0.000000	 0.086006	 0.000000
									CHANNELS 3 Zrotation Xrotation Yrotation
									JOINT LeftHandIndex2
									{
										OFFSET	 0.000000	 0.047237	 0.000000
										CHANNELS 3 Zrotation Xrotation Yrotation
										JOINT LeftHandIndex3
										{
											OFFSET	-0.004284	 0.038165	 0.000551
											CHANNELS 3 Zrotation Xrotation Yrotation
											End Site
											{
												OFFSET	-0.004284	 0.038165	 0.000551
											}
										}
									}
								}
							}
						}
					}
				}
				JOINT Neck
				{
					OFFSET	 0.000000	 0.176489	 0.000000
					CHANNELS 3 Zrotation Xrotation Yrotation
					JOINT Head
					{
						OFFSET	 0.000000	 0.077941	 0.001747
						CHANNELS 3 Zrotation Xrotation Yrotation
						End Site
						{
							OFFSET	 0.000000	 0.077941	 0.001747
						}
					}
				}
				JOINT RightShoulder
				{
					OFFSET	-0.080363	 0.159706	-0.000306
					CHANNELS 3 Zrotation Xrotation Yrotation
					JOINT RightArm
					{
						OFFSET	 0.000000	 0.164196	 0.000000
						CHANNELS 3 Zrotation Xrotation Yrotation
						JOINT RightForeArm
						{
							OFFSET	 0.000000	 0.365611	 0.000000
							CHANNELS 3 Zrotation Xrotation Yrotation
							JOINT RightHand
							{
								OFFSET	 0.000000	 0.360648	 0.000000
								CHANNELS 3 Zrotation Xrotation Yrotation
								JOINT RightHandIndex1
								{
									OFFSET	 0.000000	 0.069977	 0.000000
									CHANNELS 3 Zrotation Xrotation Yrotation
									JOINT RightHandIndex2
									{
										OFFSET	 0.000000	 0.052305	 0.000000
										CHANNELS 3 Zrotation Xrotation Yrotation
										JOINT RightHandIndex3
										{
											OFFSET	 0.009002	 0.042196	 0.000782
											CHANNELS 3 Zrotation Xrotation Yrotation
											End Site
											{
												OFFSET	 0.009002	 0.042196	 0.000782
											}
										}
									}
								}
							}
						}
					}
				}
			}
		}
	}
}
MOTION
Frames:    10
Frame Time: 0.03333334
-0.017516	 1.256051	 0.114896	 4.755943	 0.264550	 174.039800	-170.159500	 16.038230	 6.303825	 2.431490	-24.709080	 1.140422	 45.676690	 46.496570	-62.543750	 4.912825	 28.009670	-6.307247	-173.111700	 5.005764	-0.441488	-1.739498	-19.402980	 1.803654	-56.970760	 58.364950	 63.773520	-0.382046	 31.178440	 1.638546	 1.378617	 3.967546	-10.444800	 9.803055	 8.503276	-5.504902	-8.415554	-6.525567	 17.947770	-112.535200	 3.093145	 88.309330	 57.470350	 34.097650	-26.558330	 4.553861	-0.221374	 0.260653	-37.997090	 7.986602	-63.883670	-7.982194	 12.538130	-5.841895	-7.228898	 12.657410	 2.803111	 4.963066	-4.014628	-0.346955	 1.489448	-13.871080	 1.367798	-2.015254	 9.039844	-23.964140	 109.090700	 0.701325	-88.608710	-11.575200	 63.336860	 11.345660	-5.312238	-0.665004	 41.601080	-10.947980	 12.985690	-85.377200	 1.984730	 8.225535	 8.959940	 15.203010	 20.265430	-6.348693	-8.239867	-2.131385	 0.447455
-0.017777	 1.256619	 0.114316	 4.639632	 0.157333	 174.255300	-170.222500	 16.342710	 5.860213	 2.459954	-24.963070	 1.241721	 45.559900	 46.366530	-62.390420	 4.912832	 28.009700	-6.307216	-173.327900	 5.387378	 0.339034	-1.791707	-19.939950	 1.567562	-57.240100	 58.261050	 64.239140	-0.400813	 31.201370	 1.657157	 1.473708	 3.951956	-12.402910	 9.372199	 8.140070	-5.418356	-7.924772	-6.112688	 17.870290	-112.428600	 2.959567	 88.291130	 57.386880	 34.431650	-26.867170	 5.414339	-0.214226	-0.636661	-39.916630	 6.550977	-63.374470	-7.859251	 12.638820	-5.872468	-7.229457	 12.634040	 2.799920	 4.963066	-4.014628	-0.346955	 1.379302	-13.703870	 1.424264	-1.958871	 9.515528	-24.309630	 108.957400	 0.803238	-88.660250	-11.391850	 63.119560	 11.595000	-5.957876	-1.213701	 42.159840	-12.090820	 12.696310	-84.083870	 1.879013	 7.940269	 8.957046	 15.203440	 20.328710	-6.366014	-8.239867	-2.131385	 0.447455
-0.018272	 1.256638	 0.113218	 4.465960	-0.003865	 174.575900	-170.398000	 16.811670	 5.540985	 2.512099	-25.425780	 1.393582	 45.585740	 46.280250	-62.409410	 4.912842	 28.009760	-6.307169	-173.619800	 5.976077	 1.216791	-1.878100	-20.820260	 1.228939	-57.842880	 58.193630	 65.121750	-0.428861	 31.235600	 1.684974	 1.624930	 3.930558	-15.279960	 8.701157	 7.602673	-5.269386	-7.182389	-5.498536	 17.744330	-112.269400	 2.760045	 88.264430	 57.109070	 35.134720	-27.120590	 6.707554	-0.204326	-1.973746	-42.406410	 4.234059	-62.853360	-7.675465	 12.789070	-5.918556	-7.230294	 12.599140	 2.795155	 4.963066	-4.014628	-0.346955	 1.214644	-13.454370	 1.509129	-1.867631	 10.224820	-24.829240	 108.758500	 0.955668	-88.736770	-6.619688	 63.395600	 7.947013	-11.025470	-2.391423	 42.922950	-12.133380	 11.089420	-82.393170	 1.721236	 7.514246	 8.951738	 15.204130	 20.423200	-6.391891	-8.239867	-2.131385	 0.447455
-0.019076	 1.256019	 0.111376	 4.225147	-0.227147	 175.005400	-170.702500	 17.455410	 5.349807	 2.591174	-26.120600	 1.593170	 45.768160	 46.256440	-62.619430	 4.912855	 28.009840	-6.307107	-174.013400	 6.775863	 2.195276	-2.001579	-22.060830	 0.804876	-58.786930	 58.179230	 66.435880	-0.466055	 31.280910	 1.721861	 1.829286	 3.896910	-18.989740	 7.758170	 6.891623	-5.046369	-6.179464	-4.687279	 17.558430	-112.058800	 2.495673	 88.229920	 56.439030	 36.337810	-27.084370	 8.425997	-0.192381	-3.734103	-45.051860	 0.968413	-62.524460	-7.431688	 12.987850	-5.980402	-7.231407	 12.552910	 2.788844	 4.963066	-4.014628	-0.346955	 0.996229	-13.124260	 1.622533	-1.733778	 11.161920	-25.524360	 108.495500	 1.157928	-88.837300	-2.520661	 63.429040	 5.094555	-15.460030	-3.703135	 43.905880	-13.171680	 9.665489	-80.006870	 1.512410	 6.949959	 8.942895	 15.205110	 20.548360	-6.426191	-8.239867	-2.131385	 0.447455
-0.020143	 1.254852	 0.108879	 3.938959	-0.494461	 175.499400	-171.108500	 18.203550	 5.292121	 2.689126	-26.969840	 1.816560	 46.082180	 46.297250	-62.991670	 4.912870	 28.009920	-6.307036	-174.487300	 7.682787	 3.191622	-2.147089	-23.495100	 0.353536	-59.939920	 58.212580	 68.004650	-0.508452	 31.332460	 1.763909	 2.065805	 3.848670	-23.040780	 6.617685	 6.084344	-4.769868	-5.013459	-3.769981	 17.320000	-111.819300	 2.194590	 88.191830	 55.279440	 37.988050	-26.586800	 10.381150	-0.180646	-5.713778	-47.238620	-2.909621	-62.547460	-7.153708	 13.213780	-6.051914	-7.232681	 12.500300	 2.781662	 4.963066	-4.014628	-0.346955	 0.747154	-12.749040	 1.753001	-1.563339	 12.224680	-26.325360	 108.196400	 1.388728	-88.950630	 0.973499	 63.320870	 2.893752	-19.261860	-5.026046	 44.984180	-14.787130	 8.442134	-77.230800	 1.274882	 6.307662	 8.930322	 15.206330	 20.690800	-6.465269	-8.239867	-2.131385	 0.447455
-0.021711	 1.252957	 0.105252	 3.566159	-0.855095	 176.143700	-171.688000	 19.182820	 5.365479	 2.824837	-28.125500	 2.102390	 46.592860	 46.408740	-63.605760	 4.912890	 28.010030	-6.306944	-175.136100	 8.813366	 4.398974	-2.334734	-25.299280	-0.191608	-61.450010	 58.285060	 70.028920	-0.564144	 31.400000	 1.819144	 2.395090	 3.775929	-28.009840	 5.047344	 5.030602	-4.391043	-3.459095	-2.583107	 16.963810	-111.505600	 1.799572	 88.143820	 53.260200	 40.407720	-25.404680	 12.906450	-0.167218	-8.252106	-48.972830	-8.103925	-62.989840	-6.788381	 13.509510	-6.147491	-7.234360	 12.431310	 2.772245	 4.963066	-4.014628	-0.346955	 0.419780	-12.257880	 1.926317	-1.310617	 13.610580	-27.391790	 107.805000	 1.692245	-89.097400	 4.891922	 63.103240	 0.601444	-23.516130	-6.594524	 46.307650	-16.851930	 7.073077	-73.635740	 0.963617	 5.465523	 8.909806	 15.208080	 20.877570	-6.516568	-8.239867	-2.131385	 0.447455
-0.023566	 1.250819	 0.101066	 3.138063	-1.289701	 176.891000	-172.396000	 20.267360	 5.583870	 2.974404	-29.370810	 2.418794	 47.216390	 46.537080	-64.349620	 4.912913	 28.010160	-6.306836	-175.917800	 9.992740	 5.726936	-2.530504	-27.125690	-0.763696	-63.051170	 58.336220	 72.145760	-0.629375	 31.478880	 1.883840	 2.789085	 3.673855	-33.223950	 3.144115	 3.804433	-3.967153	-1.623745	-1.225525	 16.485050	-111.139500	 1.337645	 88.090480	 50.677590	 43.193000	-23.844840	 15.739050	-0.152774	-11.104890	-49.822120	-14.147850	-63.622270	-6.360240	 13.854340	-6.261790	-7.236336	 12.350690	 2.761241	 4.963066	-4.014628	-0.346955	 0.036049	-11.685150	 2.132079	-0.973178	 15.216910	-28.661810	 107.348400	 2.048178	-89.266290	 9.034232	 62.842670	-1.688962	-28.141700	-8.238120	 47.692150	-18.553920	 5.576535	-69.669010	 0.600007	 4.481601	 8.880051	 15.210360	 21.095820	-6.576605	-8.239867	-2.131385	 0.447455
-0.025201	 1.249391	 0.097571	 2.713457	-1.743356	 177.650000	-173.123400	 21.246320	 5.918725	 3.094061	-30.345520	 2.712299	 47.770380	 46.569080	-64.993870	 4.912937	 28.010300	-6.306725	-176.711400	 10.988240	 7.025507	-2.682762	-28.505960	-1.275192	-64.336610	 58.283980	 73.815350	-0.696260	 31.559500	 1.950179	 3.178102	 3.560559	-37.782630	 1.176488	 2.555551	-3.606534	 0.247667	 0.123946	 15.927340	-110.765700	 0.864846	 88.038970	 48.958790	 45.418370	-23.247870	 18.418080	-0.137352	-13.858290	-50.106620	-20.082930	-63.708270	-5.920948	 14.206150	-6.381617	-7.238374	 12.268230	 2.749986	 4.963066	-4.014628	-0.346955	-0.357767	-11.100820	 2.346127	-0.581091	 16.842130	-29.987900	 106.882500	 2.413610	-89.436150	 13.088350	 62.650490	-3.881262	-33.048170	-9.739092	 48.881660	-18.878810	 4.001909	-66.055590	 0.228097	 3.475653	 8.843189	 15.212950	 21.319060	-6.638113	-8.239867	-2.131385	 0.447455
-0.036075	 1.247754	 0.084341	 1.648427	-3.661369	-179.299200	-176.001000	 24.502490	 8.115862	 3.462040	-33.223270	 3.205010	 47.434400	 47.367860	-66.131760	 5.089179	 30.231840	-5.648402	-179.125600	 13.141130	 10.481550	-2.884255	-30.278530	-1.803317	-66.221620	 58.544000	 76.399420	-0.820906	 31.542560	 2.079587	 3.330282	 3.601849	-41.247310	-1.767807	 0.690621	-2.462792	 1.880145	 2.122332	 14.991460	-110.762700	-1.827314	 87.213970	 49.987770	 48.263780	-25.027470	 21.325960	-0.081374	-16.907810	-47.534030	-30.292930	-61.873090	-5.276055	 15.056180	-6.548654	-7.258760	 12.296300	 2.764026	 4.963066	-4.014628	-0.346955	-0.449386	-10.239070	 2.117362	 0.880864	 17.744490	-32.621590	 105.437200	 5.124059	-90.212520	 32.921700	 63.018990	-16.528140	-45.777360	-11.675710	 49.251560	-19.804730	-0.050064	-65.172870	 3.426425	-6.230746	 8.678345	 14.621030	 19.248400	-5.880070	-8.239867	-2.131385	 0.447455
-0.047708	 1.245731	 0.067972	 0.497557	-6.474618	-174.832000	 179.715900	 28.971140	 12.213100	 4.098716	-37.783580	 4.045022	 46.830870	 48.955060	-68.339690	 5.126970	 33.420440	-4.980865	 177.647700	 15.594690	 15.626990	-3.077006	-31.916000	-2.452165	-68.768590	 58.780130	 79.607330	-0.952559	 31.127980	 2.232583	 3.299797	 3.936968	-42.959160	-5.418648	-1.073737	-1.194308	 3.465992	 4.445116	 13.690110	-110.689900	-4.812916	 86.358710	 51.231370	 50.767060	-27.306780	 24.177870	-0.002259	-19.848000	-39.768090	-40.258670	-56.063340	-4.532716	 15.842640	-6.778279	-7.286605	 12.363880	 2.787686	 4.963066	-4.014628	-0.346955	-0.104362	-9.468860	 1.593449	 2.999679	 18.123000	-36.260970	 103.546400	 8.652002	-90.868160	 49.009930	 63.944290	-25.138560	-54.862930	-12.985980	 49.466420	-20.227680	-4.112948	-65.039990	 8.105514	-19.342540	 9.389813	 13.948890	 16.758310	-5.011277	-8.239867	-2.131385	 0.447455
